{
	"asset":{
		"generator":"Khronos glTF Blender I/O v3.6.27",
		"version":"2.0"
	},
	"scene":0,
	"scenes":[
		{
			"name":"Scene",
			"nodes":[
				42
			]
		}
	],
	"nodes":[
		{
			"mesh":0,
			"name":"Revoluci\u00f3n1",
			"scale":[
				0.0010000001639127731,
				0.0010000000474974513,
				0.0010000001639127731
			]
		},
		{
			"children":[
				0
			],
			"name":"0a73327a-9673-4e88-acb2-3a842be8691a",
			"rotation":[
				0,
				-0.5837438106536865,
				0,
				0.8119379281997681
			],
			"translation":[
				-0.4193207323551178,
				1.0700000524520874,
				-0.12999995052814484
			]
		},
		{
			"mesh":1,
			"name":"Saliente-Extruir2_3",
			"scale":[
				0.0010000000474974513,
				0.0010000000474974513,
				0.0010000000474974513
			]
		},
		{
			"children":[
				2
			],
			"name":"191c4444-be5c-4394-84b5-51529544f18c",
			"rotation":[
				0,
				1,
				0,
				1.5230166032411535e-13
			]
		},
		{
			"mesh":2,
			"name":"Saliente-Extruir1",
			"scale":[
				0.0010000000474974513,
				0.0010000000474974513,
				0.0010000000474974513
			]
		},
		{
			"children":[
				4
			],
			"name":"2277620f-ffb4-496a-9e44-bd2a61fc5d71",
			"rotation":[
				-0.7071068286895752,
				0,
				-0.7071068286895752,
				1.8825777203801408e-07
			],
			"translation":[
				0.5950000286102295,
				0.6800000071525574,
				-0.14499996602535248
			]
		},
		{
			"mesh":3,
			"name":"Obj_Cortar-Extruir2",
			"scale":[
				0.0010000000474974513,
				0.0010000000474974513,
				0.0010000000474974513
			]
		},
		{
			"children":[
				6
			],
			"name":"269b5b17-4cb9-4203-b3c7-7cae349853b7"
		},
		{
			"mesh":4,
			"name":"Obj_Saliente-Extruir2",
			"scale":[
				0.0010000000474974513,
				0.0010000000474974513,
				0.0010000000474974513
			]
		},
		{
			"children":[
				8
			],
			"name":"2ca5fa9b-ca66-46e7-a938-32487bcba112"
		},
		{
			"mesh":5,
			"name":"Obj_Saliente-Extruir1",
			"scale":[
				0.0010000000474974513,
				0.0010000000474974513,
				0.0010000000474974513
			]
		},
		{
			"children":[
				10
			],
			"name":"3af752c6-d2fb-4b5e-aa4e-ff8d3354d8c9",
			"rotation":[
				-0.7071068286895752,
				0,
				-0.7071068286895752,
				1.8825777203801408e-07
			],
			"translation":[
				0.3050000071525574,
				0.6800000071525574,
				-0.14499996602535248
			]
		},
		{
			"mesh":6,
			"name":"Chafl\u00e1n1",
			"scale":[
				0.0010000000474974513,
				0.0010000000474974513,
				0.0010000000474974513
			]
		},
		{
			"children":[
				12
			],
			"name":"41dd7e7e-b195-402a-a775-5480365fcf31"
		},
		{
			"mesh":7,
			"name":"Cortar-Extruir3",
			"scale":[
				0.0010000000474974513,
				0.0010000000474974513,
				0.0010000000474974513
			]
		},
		{
			"children":[
				14
			],
			"name":"5b33361c-29b2-4038-ad0b-e1d35a634146"
		},
		{
			"mesh":8,
			"name":"Obj_Saliente-Extruir1_1.001",
			"scale":[
				0.0010000000474974513,
				0.0010000000474974513,
				0.0010000000474974513
			]
		},
		{
			"children":[
				16
			],
			"name":"7023d875-32a2-4b54-ab40-0414b2487119",
			"rotation":[
				-0.14225061237812042,
				0,
				0,
				0.989830732345581
			],
			"translation":[
				-0.1850000023841858,
				0.019185956567525864,
				-1.0187101364135742
			]
		},
		{
			"mesh":9,
			"name":"Obj_Cortar-Extruir3",
			"scale":[
				0.0010000000474974513,
				0.0010000000474974513,
				0.0010000000474974513
			]
		},
		{
			"children":[
				18
			],
			"name":"942414df-9f72-4bc9-bf0e-053699d201b2",
			"translation":[
				20.964963912963867,
				0,
				-0.07189220935106277
			]
		},
		{
			"mesh":1,
			"name":"Saliente-Extruir2",
			"scale":[
				0.0010000000474974513,
				0.0010000000474974513,
				0.0010000000474974513
			]
		},
		{
			"children":[
				20
			],
			"name":"9d4b2a3b-bd2b-4d9f-a582-079635924613"
		},
		{
			"mesh":10,
			"name":"Obj_Redondeo1",
			"scale":[
				0.0010000000474974513,
				0.0010000000474974513,
				0.0010000000474974513
			]
		},
		{
			"children":[
				22
			],
			"name":"9fc8fff9-e89e-4106-92ec-2ed6e75653a4"
		},
		{
			"mesh":11,
			"name":"Cortar-Revoluci\u00f3n4",
			"scale":[
				0.0010000000474974513,
				0.0010000000474974513,
				0.0010000000474974513
			]
		},
		{
			"children":[
				24
			],
			"name":"a1388213-59f3-46d1-ade6-b7f5386c2a38",
			"rotation":[
				-0.20378555357456207,
				0.20378552377223969,
				0.6771053075790405,
				0.6771051287651062
			],
			"translation":[
				-0.003744756570085883,
				1.250000238418579,
				0
			]
		},
		{
			"mesh":1,
			"name":"Saliente-Extruir2_1",
			"scale":[
				0.0009999999310821295,
				0.0010000000474974513,
				0.0009999999310821295
			]
		},
		{
			"children":[
				26
			],
			"name":"a57243d6-1ffa-4cca-9c34-c472946e47f2",
			"rotation":[
				0,
				-0.8320508599281311,
				0,
				0.5546993613243103
			],
			"translation":[
				-0.9035320281982422,
				0,
				0.6023546457290649
			]
		},
		{
			"mesh":12,
			"name":"Cortar-Extruir2",
			"scale":[
				0.0010000000474974513,
				0.0010000000474974513,
				0.0010000000474974513
			]
		},
		{
			"children":[
				28
			],
			"name":"b1625455-9089-470a-a3bb-608efd7bb37b"
		},
		{
			"mesh":13,
			"name":"Chafl\u00e1n2",
			"scale":[
				0.0010000000474974513,
				0.0010000000474974513,
				0.0010000001639127731
			]
		},
		{
			"children":[
				30
			],
			"name":"b60a1086-7d85-422f-8b1f-a32cd738c46f",
			"rotation":[
				-0.6960660815238953,
				0.12446669489145279,
				-0.69606614112854,
				0.12446678429841995
			],
			"translation":[
				-0.2537447512149811,
				1.2500001192092896,
				0
			]
		},
		{
			"mesh":14,
			"name":"Cortar-Extruir1",
			"scale":[
				0.0010000000474974513,
				0.0010000000474974513,
				0.0010000000474974513
			]
		},
		{
			"children":[
				32
			],
			"name":"c58b4b91-4c13-4093-90ab-a6ca9b26dc17"
		},
		{
			"mesh":15,
			"name":"Redondeo1",
			"scale":[
				0.0010000000474974513,
				0.0010000000474974513,
				0.0010000000474974513
			]
		},
		{
			"children":[
				34
			],
			"name":"ccc185ff-4e8c-4e6f-ab4a-9dc61f89ca39",
			"rotation":[
				0,
				0.17020021378993988,
				0,
				0.9854094982147217
			],
			"translation":[
				19.51514434814453,
				0.3446405529975891,
				-3.835280179977417
			]
		},
		{
			"mesh":5,
			"name":"Obj_Saliente-Extruir1_1",
			"scale":[
				0.0010000000474974513,
				0.0010000000474974513,
				0.0010000000474974513
			]
		},
		{
			"children":[
				36
			],
			"name":"e9bb1ab1-ed2b-498e-907a-5c374d19f31f",
			"rotation":[
				-0.7071068286895752,
				0,
				-0.7071068286895752,
				1.8825777203801408e-07
			],
			"translation":[
				-0.4653247594833374,
				0.6800000071525574,
				-0.14499996602535248
			]
		},
		{
			"mesh":16,
			"name":"Saliente-Extruir3",
			"scale":[
				0.0010000000474974513,
				0.0010000000474974513,
				0.0010000000474974513
			]
		},
		{
			"children":[
				38
			],
			"name":"ea36305d-d129-4aab-8a9c-23f31d51c8d7"
		},
		{
			"mesh":1,
			"name":"Saliente-Extruir2_2",
			"scale":[
				0.0010000000474974513,
				0.0010000000474974513,
				0.0010000000474974513
			]
		},
		{
			"children":[
				40
			],
			"name":"fcb472fe-578b-43a7-bcc9-38c7ddeb9b8f",
			"rotation":[
				0,
				0.5547001361846924,
				0,
				0.8320503234863281
			],
			"translation":[
				0.9035318493843079,
				0,
				-0.6023545861244202
			]
		},
		{
			"children":[
				1,
				3,
				5,
				7,
				9,
				11,
				13,
				15,
				17,
				19,
				21,
				23,
				25,
				27,
				29,
				31,
				33,
				35,
				37,
				39,
				41
			],
			"name":"aa88ad18-8787-4716-b411-32f48d703aa5",
			"scale":[
				0.5,
				0.5,
				0.5
			]
		}
	],
	"materials":[
		{
			"name":"fallback Material.001",
			"pbrMetallicRoughness":{
				"baseColorFactor":[
					0.3049873113632202,
					0.3049873113632202,
					0.3049873113632202,
					1
				],
				"metallicFactor":0.8899999856948853,
				"roughnessFactor":0.2800000011920929
			}
		},
		{
			"name":"fallback Material",
			"pbrMetallicRoughness":{
				"baseColorFactor":[
					0.38642942905426025,
					0.16202937066555023,
					0.022173885256052017,
					1
				],
				"roughnessFactor":0.6800000071525574
			}
		},
		{
			"name":"fallback Material.003",
			"pbrMetallicRoughness":{
				"baseColorFactor":[
					0.05780543014407158,
					0.004024717025458813,
					0.0018211619462817907,
					1
				]
			}
		},
		{
			"name":"fallback Material.002",
			"pbrMetallicRoughness":{
				"baseColorFactor":[
					0.09305896610021591,
					0.03071344457566738,
					0.004024717025458813,
					1
				],
				"roughnessFactor":0.6399999856948853
			}
		},
		{
			"name":"fallback Material.004",
			"pbrMetallicRoughness":{
				"baseColorFactor":[
					0.8468732237815857,
					0.7230551242828369,
					0.4677838087081909,
					1
				]
			}
		}
	],
	"meshes":[
		{
			"name":"Mesh_7",
			"primitives":[
				{
					"attributes":{
						"POSITION":0,
						"NORMAL":1
					},
					"indices":2,
					"material":0
				}
			]
		},
		{
			"name":"Mesh_1",
			"primitives":[
				{
					"attributes":{
						"POSITION":3,
						"NORMAL":4
					},
					"indices":5,
					"material":1
				}
			]
		},
		{
			"name":"Mesh_8",
			"primitives":[
				{
					"attributes":{
						"POSITION":6,
						"NORMAL":7
					},
					"indices":8,
					"material":2
				}
			]
		},
		{
			"name":"Mesh_5",
			"primitives":[
				{
					"attributes":{
						"POSITION":9,
						"NORMAL":10
					},
					"indices":11,
					"material":3
				}
			]
		},
		{
			"name":"Mesh_16",
			"primitives":[
				{
					"attributes":{
						"POSITION":12,
						"NORMAL":13
					},
					"indices":14,
					"material":4
				}
			]
		},
		{
			"name":"Mesh_9",
			"primitives":[
				{
					"attributes":{
						"POSITION":15,
						"NORMAL":16
					},
					"indices":8,
					"material":2
				}
			]
		},
		{
			"name":"Mesh_2",
			"primitives":[
				{
					"attributes":{
						"POSITION":17,
						"NORMAL":18
					},
					"indices":19,
					"material":0
				}
			]
		},
		{
			"name":"Mesh_3",
			"primitives":[
				{
					"attributes":{
						"POSITION":20,
						"NORMAL":21
					},
					"indices":22,
					"material":0
				}
			]
		},
		{
			"name":"Mesh_15",
			"primitives":[
				{
					"attributes":{
						"POSITION":23,
						"NORMAL":24
					},
					"indices":8,
					"material":2
				}
			]
		},
		{
			"name":"Mesh_4",
			"primitives":[
				{
					"attributes":{
						"POSITION":25,
						"NORMAL":26
					},
					"indices":27,
					"material":0
				}
			]
		},
		{
			"name":"Mesh_11",
			"primitives":[
				{
					"attributes":{
						"POSITION":28,
						"NORMAL":29
					},
					"indices":30,
					"material":3
				}
			]
		},
		{
			"name":"Mesh_14",
			"primitives":[
				{
					"attributes":{
						"POSITION":31,
						"NORMAL":32
					},
					"indices":33,
					"material":4
				}
			]
		},
		{
			"name":"Mesh_0",
			"primitives":[
				{
					"attributes":{
						"POSITION":34,
						"NORMAL":35
					},
					"indices":36,
					"material":1
				}
			]
		},
		{
			"name":"Mesh_13",
			"primitives":[
				{
					"attributes":{
						"POSITION":37,
						"NORMAL":38
					},
					"indices":39,
					"material":1
				}
			]
		},
		{
			"name":"Mesh_12",
			"primitives":[
				{
					"attributes":{
						"POSITION":40,
						"NORMAL":41
					},
					"indices":42,
					"material":3
				}
			]
		},
		{
			"name":"Mesh_6",
			"primitives":[
				{
					"attributes":{
						"POSITION":43,
						"NORMAL":44
					},
					"indices":45,
					"material":1
				}
			]
		},
		{
			"name":"Mesh_10",
			"primitives":[
				{
					"attributes":{
						"POSITION":46,
						"NORMAL":47
					},
					"indices":48,
					"material":3
				}
			]
		}
	],
	"accessors":[
		{
			"bufferView":0,
			"componentType":5126,
			"count":186,
			"max":[
				24.81772232055664,
				173.0601043701172,
				25
			],
			"min":[
				-24.81772232055664,
				0,
				-25
			],
			"type":"VEC3"
		},
		{
			"bufferView":1,
			"componentType":5126,
			"count":186,
			"type":"VEC3"
		},
		{
			"bufferView":2,
			"componentType":5123,
			"count":720,
			"type":"SCALAR"
		},
		{
			"bufferView":3,
			"componentType":5126,
			"count":793,
			"max":[
				-709.8009643554688,
				880,
				338.62109375
			],
			"min":[
				-898.1990966796875,
				0,
				106.0051040649414
			],
			"type":"VEC3"
		},
		{
			"bufferView":4,
			"componentType":5126,
			"count":793,
			"type":"VEC3"
		},
		{
			"bufferView":5,
			"componentType":5123,
			"count":4122,
			"type":"SCALAR"
		},
		{
			"bufferView":6,
			"componentType":5126,
			"count":24,
			"max":[
				350,
				160,
				60
			],
			"min":[
				0,
				0,
				0
			],
			"type":"VEC3"
		},
		{
			"bufferView":7,
			"componentType":5126,
			"count":24,
			"type":"VEC3"
		},
		{
			"bufferView":8,
			"componentType":5123,
			"count":36,
			"type":"SCALAR"
		},
		{
			"bufferView":9,
			"componentType":5126,
			"count":84,
			"max":[
				700,
				1130,
				650
			],
			"min":[
				550,
				380,
				-650
			],
			"type":"VEC3"
		},
		{
			"bufferView":10,
			"componentType":5126,
			"count":84,
			"type":"VEC3"
		},
		{
			"bufferView":11,
			"componentType":5123,
			"count":168,
			"type":"SCALAR"
		},
		{
			"bufferView":12,
			"componentType":5126,
			"count":3610,
			"max":[
				6.857833385467529,
				3048.832763671875,
				44.983604431152344
			],
			"min":[
				-139.17803955078125,
				350.5368347167969,
				-44.983604431152344
			],
			"type":"VEC3"
		},
		{
			"bufferView":13,
			"componentType":5126,
			"count":3610,
			"type":"VEC3"
		},
		{
			"bufferView":14,
			"componentType":5123,
			"count":20232,
			"type":"SCALAR"
		},
		{
			"bufferView":15,
			"componentType":5126,
			"count":24,
			"max":[
				350,
				160,
				80
			],
			"min":[
				0,
				0,
				0
			],
			"type":"VEC3"
		},
		{
			"bufferView":16,
			"componentType":5126,
			"count":24,
			"type":"VEC3"
		},
		{
			"bufferView":17,
			"componentType":5126,
			"count":107,
			"max":[
				300,
				1262.5,
				12.5
			],
			"min":[
				140,
				1237.5,
				-12.5
			],
			"type":"VEC3"
		},
		{
			"bufferView":18,
			"componentType":5126,
			"count":107,
			"type":"VEC3"
		},
		{
			"bufferView":19,
			"componentType":5123,
			"count":234,
			"type":"SCALAR"
		},
		{
			"bufferView":20,
			"componentType":5126,
			"count":212,
			"max":[
				500,
				1380,
				280
			],
			"min":[
				220,
				380,
				-280
			],
			"type":"VEC3"
		},
		{
			"bufferView":21,
			"componentType":5126,
			"count":212,
			"type":"VEC3"
		},
		{
			"bufferView":22,
			"componentType":5123,
			"count":558,
			"type":"SCALAR"
		},
		{
			"bufferView":23,
			"componentType":5126,
			"count":24,
			"max":[
				100,
				20,
				1200
			],
			"min":[
				0,
				0,
				0
			],
			"type":"VEC3"
		},
		{
			"bufferView":24,
			"componentType":5126,
			"count":24,
			"type":"VEC3"
		},
		{
			"bufferView":25,
			"componentType":5126,
			"count":465,
			"max":[
				-21210.2890625,
				1262.31005859375,
				351.8921813964844
			],
			"min":[
				-21540.2890625,
				380,
				-208.1078338623047
			],
			"type":"VEC3"
		},
		{
			"bufferView":26,
			"componentType":5126,
			"count":465,
			"type":"VEC3"
		},
		{
			"bufferView":27,
			"componentType":5123,
			"count":1410,
			"type":"SCALAR"
		},
		{
			"bufferView":28,
			"componentType":5126,
			"count":116,
			"max":[
				453.219970703125,
				696.39990234375,
				3364
			],
			"min":[
				-453.219970703125,
				-3.313175810635595e-14,
				3300
			],
			"type":"VEC3"
		},
		{
			"bufferView":29,
			"componentType":5126,
			"count":116,
			"type":"VEC3"
		},
		{
			"bufferView":30,
			"componentType":5123,
			"count":324,
			"type":"SCALAR"
		},
		{
			"bufferView":31,
			"componentType":5126,
			"count":1007,
			"max":[
				149.55987548828125,
				0,
				149.88992309570312
			],
			"min":[
				-150,
				-149.41427612304688,
				-149.88992309570312
			],
			"type":"VEC3"
		},
		{
			"bufferView":32,
			"componentType":5126,
			"count":1007,
			"type":"VEC3"
		},
		{
			"bufferView":33,
			"componentType":5123,
			"count":4920,
			"type":"SCALAR"
		},
		{
			"bufferView":34,
			"componentType":5126,
			"count":416,
			"max":[
				850,
				880,
				325
			],
			"min":[
				-850,
				680,
				-325
			],
			"type":"VEC3"
		},
		{
			"bufferView":35,
			"componentType":5126,
			"count":416,
			"type":"VEC3"
		},
		{
			"bufferView":36,
			"componentType":5123,
			"count":1200,
			"type":"SCALAR"
		},
		{
			"bufferView":37,
			"componentType":5126,
			"count":355,
			"max":[
				40,
				39.92107009887695,
				300
			],
			"min":[
				-39.68458938598633,
				-39.92107009887695,
				0
			],
			"type":"VEC3"
		},
		{
			"bufferView":38,
			"componentType":5126,
			"count":355,
			"type":"VEC3"
		},
		{
			"bufferView":39,
			"componentType":5123,
			"count":804,
			"type":"SCALAR"
		},
		{
			"bufferView":40,
			"componentType":5126,
			"count":161,
			"max":[
				1264.3970947265625,
				2250,
				1100
			],
			"min":[
				-1264.3970947265625,
				-6.661338147750939e-13,
				1000
			],
			"type":"VEC3"
		},
		{
			"bufferView":41,
			"componentType":5126,
			"count":161,
			"type":"VEC3"
		},
		{
			"bufferView":42,
			"componentType":5123,
			"count":366,
			"type":"SCALAR"
		},
		{
			"bufferView":43,
			"componentType":5126,
			"count":128,
			"max":[
				-18372.416015625,
				885.3595581054688,
				-3146.0830078125
			],
			"min":[
				-20072.416015625,
				785.3595581054688,
				-3246.0830078125
			],
			"type":"VEC3"
		},
		{
			"bufferView":44,
			"componentType":5126,
			"count":128,
			"type":"VEC3"
		},
		{
			"bufferView":45,
			"componentType":5123,
			"count":324,
			"type":"SCALAR"
		},
		{
			"bufferView":46,
			"componentType":5126,
			"count":205,
			"max":[
				25,
				3080,
				4041.666748046875
			],
			"min":[
				-25,
				0,
				-79
			],
			"type":"VEC3"
		},
		{
			"bufferView":47,
			"componentType":5126,
			"count":205,
			"type":"VEC3"
		},
		{
			"bufferView":48,
			"componentType":5123,
			"count":516,
			"type":"SCALAR"
		}
	],
	"bufferViews":[
		{
			"buffer":0,
			"byteLength":2232,
			"byteOffset":0,
			"target":34962
		},
		{
			"buffer":0,
			"byteLength":2232,
			"byteOffset":2232,
			"target":34962
		},
		{
			"buffer":0,
			"byteLength":1440,
			"byteOffset":4464,
			"target":34963
		},
		{
			"buffer":0,
			"byteLength":9516,
			"byteOffset":5904,
			"target":34962
		},
		{
			"buffer":0,
			"byteLength":9516,
			"byteOffset":15420,
			"target":34962
		},
		{
			"buffer":0,
			"byteLength":8244,
			"byteOffset":24936,
			"target":34963
		},
		{
			"buffer":0,
			"byteLength":288,
			"byteOffset":33180,
			"target":34962
		},
		{
			"buffer":0,
			"byteLength":288,
			"byteOffset":33468,
			"target":34962
		},
		{
			"buffer":0,
			"byteLength":72,
			"byteOffset":33756,
			"target":34963
		},
		{
			"buffer":0,
			"byteLength":1008,
			"byteOffset":33828,
			"target":34962
		},
		{
			"buffer":0,
			"byteLength":1008,
			"byteOffset":34836,
			"target":34962
		},
		{
			"buffer":0,
			"byteLength":336,
			"byteOffset":35844,
			"target":34963
		},
		{
			"buffer":0,
			"byteLength":43320,
			"byteOffset":36180,
			"target":34962
		},
		{
			"buffer":0,
			"byteLength":43320,
			"byteOffset":79500,
			"target":34962
		},
		{
			"buffer":0,
			"byteLength":40464,
			"byteOffset":122820,
			"target":34963
		},
		{
			"buffer":0,
			"byteLength":288,
			"byteOffset":163284,
			"target":34962
		},
		{
			"buffer":0,
			"byteLength":288,
			"byteOffset":163572,
			"target":34962
		},
		{
			"buffer":0,
			"byteLength":1284,
			"byteOffset":163860,
			"target":34962
		},
		{
			"buffer":0,
			"byteLength":1284,
			"byteOffset":165144,
			"target":34962
		},
		{
			"buffer":0,
			"byteLength":468,
			"byteOffset":166428,
			"target":34963
		},
		{
			"buffer":0,
			"byteLength":2544,
			"byteOffset":166896,
			"target":34962
		},
		{
			"buffer":0,
			"byteLength":2544,
			"byteOffset":169440,
			"target":34962
		},
		{
			"buffer":0,
			"byteLength":1116,
			"byteOffset":171984,
			"target":34963
		},
		{
			"buffer":0,
			"byteLength":288,
			"byteOffset":173100,
			"target":34962
		},
		{
			"buffer":0,
			"byteLength":288,
			"byteOffset":173388,
			"target":34962
		},
		{
			"buffer":0,
			"byteLength":5580,
			"byteOffset":173676,
			"target":34962
		},
		{
			"buffer":0,
			"byteLength":5580,
			"byteOffset":179256,
			"target":34962
		},
		{
			"buffer":0,
			"byteLength":2820,
			"byteOffset":184836,
			"target":34963
		},
		{
			"buffer":0,
			"byteLength":1392,
			"byteOffset":187656,
			"target":34962
		},
		{
			"buffer":0,
			"byteLength":1392,
			"byteOffset":189048,
			"target":34962
		},
		{
			"buffer":0,
			"byteLength":648,
			"byteOffset":190440,
			"target":34963
		},
		{
			"buffer":0,
			"byteLength":12084,
			"byteOffset":191088,
			"target":34962
		},
		{
			"buffer":0,
			"byteLength":12084,
			"byteOffset":203172,
			"target":34962
		},
		{
			"buffer":0,
			"byteLength":9840,
			"byteOffset":215256,
			"target":34963
		},
		{
			"buffer":0,
			"byteLength":4992,
			"byteOffset":225096,
			"target":34962
		},
		{
			"buffer":0,
			"byteLength":4992,
			"byteOffset":230088,
			"target":34962
		},
		{
			"buffer":0,
			"byteLength":2400,
			"byteOffset":235080,
			"target":34963
		},
		{
			"buffer":0,
			"byteLength":4260,
			"byteOffset":237480,
			"target":34962
		},
		{
			"buffer":0,
			"byteLength":4260,
			"byteOffset":241740,
			"target":34962
		},
		{
			"buffer":0,
			"byteLength":1608,
			"byteOffset":246000,
			"target":34963
		},
		{
			"buffer":0,
			"byteLength":1932,
			"byteOffset":247608,
			"target":34962
		},
		{
			"buffer":0,
			"byteLength":1932,
			"byteOffset":249540,
			"target":34962
		},
		{
			"buffer":0,
			"byteLength":732,
			"byteOffset":251472,
			"target":34963
		},
		{
			"buffer":0,
			"byteLength":1536,
			"byteOffset":252204,
			"target":34962
		},
		{
			"buffer":0,
			"byteLength":1536,
			"byteOffset":253740,
			"target":34962
		},
		{
			"buffer":0,
			"byteLength":648,
			"byteOffset":255276,
			"target":34963
		},
		{
			"buffer":0,
			"byteLength":2460,
			"byteOffset":255924,
			"target":34962
		},
		{
			"buffer":0,
			"byteLength":2460,
			"byteOffset":258384,
			"target":34962
		},
		{
			"buffer":0,
			"byteLength":1032,
			"byteOffset":260844,
			"target":34963
		}
	],
	"buffers":[
		{
			"byteLength":261876,
			"uri":"data:application/octet-stream;base64,"
		}
	]
}
